<?xml version="1.0" encoding="UTF-8"?>
<svg xmlns="http://www.w3.org/2000/svg" version="1.1" viewBox="0 0 56.7 56.7">
  <!-- Generator: Adobe Illustrator 29.2.0, SVG Export Plug-In . SVG Version: 2.1.0 Build 108)  -->
  <defs>
    <style>
      .st0 {
        fill: #fff;
      }

      .st1 {
        fill: #fbdeb3;
      }

      .st1, .st2, .st3 {
        mix-blend-mode: multiply;
      }

      .st2, .st4 {
        fill: #f3c987;
      }

      .st2, .st3 {
        opacity: .6;
      }

      .st5 {
        fill: #f5deae;
      }

      .st6 {
        isolation: isolate;
      }

      .st7 {
        fill: #a15d47;
      }

      .st8 {
        fill: #633327;
      }

      .st3 {
        fill: #c98b6e;
      }

      .st9 {
        fill: #94c34f;
      }
    </style>
  </defs>
  <g class="st6">
    <g id="_레이어_1" data-name="레이어_1">
      <g>
        <path class="st5" d="M30.5,5.9c.3.3.6.6.8.9L6.8,31.2c-.3-.3-.6-.5-.9-.8-.6-.6-1.1-1.2-1.6-1.9C-.7,21.7-.2,12.1,6,5.9,12.1-.3,21.8-.8,28.6,4.3c.7.5,1.3,1,1.9,1.6Z"/>
        <path class="st4" d="M28.7,5.7l1.6,2,.9,1.2,24.2,31.2c.9,1.2.8,2.8-.2,3.9l-11.2,11.2c-1,1-2.7,1.1-3.9.2L8.8,31.3l-1.2-.9-2-1.6L28.7,5.7Z"/>
        <path class="st9" d="M20.7-5h.9c.8,0,1.4.6,1.4,1.4v50.6h-3.8V-3.5c0-.8.6-1.4,1.4-1.4Z" transform="translate(-8.7 21.1) rotate(-45)"/>
        <polygon class="st2" points="28.7 5.7 30.3 7.7 31.2 8.9 8.8 31.3 7.7 30.4 5.6 28.8 28.7 5.7"/>
        <path class="st7" d="M30.6,3.6l1.2,1.2c.4.4.3,1.1-.2,1.6L6.4,31.6c-.5.5-1.3.6-1.6.2l-1.2-1.2c-.4-.4-.3-1.1.2-1.6L29,3.9c.5-.5,1.3-.6,1.6-.2Z"/>
        <path class="st0" d="M36.4,18c.3.2.5.5.6.8.9,1.7-.2,3.9-1.5,5.4-3.5,3.8-6.9,7.7-10.4,11.5-.6.6-1.2,1.3-1.9,1.6-1.2.6-3.1.4-4.5-.3-1.4-.7-2.4-2-1.6-3.8.1-.2.2-.5.2-.7,0-.3-.3-.5-.4-.7,0,0,0-.1-.1-.2-.6-.9-.5-2,0-3,.5-1,1.4-1.7,2.3-2.4-.3-1.9.3-3.9,1.6-5.2s3.4-1.9,5.2-1.5c.3-1.3,1.3-2.4,2.6-2.9,1.3-.4,2.7-.2,3.8.6.2.2,1.9-.1,2.9,0,.2,0,.4,0,.5.1.3.2.6.4.8.6Z"/>
        <path class="st1" d="M36.1,17.6l.3.4.6.8c.9,1.7-.2,3.9-1.5,5.4-3.5,3.8-6.9,7.7-10.4,11.5-.6.6-1.2,1.3-1.9,1.6-1.2.6-3.1.4-4.5-.3l-1.2-1c-.3-.3-.5-.7-.3-1.1,0-.1.1-.3.2-.5.8-1.9,1.9-3.5,3.4-4.9,1.9-1.8,4.2-3,6.6-4.2,1.5-.7,3-1.5,4.2-2.6,1.4-1.3,2.2-3.1,2.9-4.9,0,0,0,0,0,0,.1-.3.4-.5.6-.6.4-.1.8,0,1,.3Z"/>
        <path class="st8" d="M35.2,18.7c.3-.7,1.2-.9,1.7-.3l16.9,21.9c.8,1,.7,2.5-.2,3.4l-10,10c-.9.9-2.4,1-3.4.2l-21.9-17c-.3-.3-.5-.7-.3-1.1,0-.1.1-.3.2-.5.8-1.9,1.9-3.5,3.4-4.9,1.9-1.7,4.2-3,6.6-4.2,1.5-.7,3-1.5,4.2-2.6,1.4-1.3,2.2-3.1,2.9-4.9,0,0,0,0,0,0Z"/>
        <path class="st3" d="M42.2,23.1l13.1,17c.9,1.2.8,2.8-.2,3.9l-11.2,11.2c-1,1-2.7,1.1-3.9.2l-6.2-4.8c1.1-.8,2.2-1.7,3.2-2.7,6.5-6.5,8.1-16,5.2-24.8Z"/>
      </g>
    </g>
  </g>
</svg>